<svg xmlns="http://www.w3.org/2000/svg" width="181.555" height="30.376" viewBox="0 0 181.555 30.376">
  <g id="Group_1" data-name="Group 1" transform="translate(-571 -1008)">
    <g id="_2ndplayer_veritcallogo_orange" data-name="2ndplayer_veritcallogo_orange" transform="translate(571 1008)">
      <path id="Path_1" data-name="Path 1" d="M126.968,12.718a3.131,3.131,0,0,1,3.371,3.195V20a3.131,3.131,0,0,1-3.371,3.195h-4.88a.439.439,0,0,0-.431.439v4.84a.439.439,0,0,1-.407.439H118.7a.439.439,0,0,1-.431-.439V13.157a.431.431,0,0,1,.431-.439Zm-.855,7.412a.707.707,0,0,0,.8-.8V16.544a.711.711,0,0,0-.8-.8H122.12a.431.431,0,0,0-.431.439v3.491a.431.431,0,0,0,.431.431Z" transform="translate(-37.509 -4.299)" fill="#f2f2f2"/>
      <path id="Path_2" data-name="Path 2" d="M139.789,13.169V25.422a.431.431,0,0,0,.431.439h6.294a.439.439,0,0,1,.439.431v2.188a.439.439,0,0,1-.439.439H136.8a.439.439,0,0,1-.431-.439V13.169a.439.439,0,0,1,.431-.439h2.548a.439.439,0,0,1,.439.439Z" transform="translate(-41.152 -4.303)" fill="#f2f2f2"/>
      <path id="Path_3" data-name="Path 3" d="M175,28.483V23.427a.4.4,0,0,0-.048-.192l-4.9-9.865a.439.439,0,0,1,.383-.631H173.2a.439.439,0,0,1,.391.256l2.716,5.823a.439.439,0,0,0,.8,0L179.81,13a.439.439,0,0,1,.4-.256h2.764a.439.439,0,0,1,.391.631l-4.9,9.865a.4.4,0,0,0-.048.192v5.056a.439.439,0,0,1-.423.439h-2.556A.439.439,0,0,1,175,28.483Z" transform="translate(-47.921 -4.305)" fill="#f2f2f2"/>
      <path id="Path_4" data-name="Path 4" d="M201.489,13.269v2.173a.431.431,0,0,1-.431.431H194.2a.431.431,0,0,0-.431.431v2.452a.431.431,0,0,0,.431.431H199.6a.431.431,0,0,1,.431.431v2.173a.439.439,0,0,1-.431.439H194.2a.431.431,0,0,0-.431.431v2.8a.431.431,0,0,0,.431.431h6.853a.431.431,0,0,1,.431.431V28.5a.439.439,0,0,1-.431.439H190.809a.439.439,0,0,1-.439-.439V13.269a.439.439,0,0,1,.439-.439h10.248A.439.439,0,0,1,201.489,13.269Z" transform="translate(-52.019 -4.323)" fill="#f2f2f2"/>
      <path id="Path_5" data-name="Path 5" d="M218.27,28.665l-2.516-5.5a.431.431,0,0,0-.391-.248h-2.045a.431.431,0,0,0-.431.431v5.128a.439.439,0,0,1-.431.439h-2.564a.439.439,0,0,1-.431-.439v-15.3a.439.439,0,0,1,.431-.439h8.267a3.139,3.139,0,0,1,3.371,3.195v3.794a3.027,3.027,0,0,1-1.869,2.9.439.439,0,0,0-.256.591l2.356,5.08a.439.439,0,0,1-.391.623h-2.692a.439.439,0,0,1-.407-.256Zm-.144-12.1a.711.711,0,0,0-.8-.8h-3.994a.431.431,0,0,0-.431.431v3.243a.439.439,0,0,0,.431.439h3.994a.711.711,0,0,0,.8-.8Z" transform="translate(-55.861 -4.303)" fill="#f2f2f2"/>
      <path id="Path_6" data-name="Path 6" d="M40.172,17.59H37.089a.248.248,0,0,1-.248-.248v-1.51a3.323,3.323,0,0,1,3.427-3.243h4.84a3.323,3.323,0,0,1,3.427,3.243v2.836c0,1.805-1.6,2.66-3.427,3.243L41.027,23.3c-.623.2-.951.312-.951.9v1.661h8.259a.248.248,0,0,1,.248.248V28.82a.12.12,0,0,1-.112.112H36.77a.12.12,0,0,1-.12-.112V23.445c0-1.805,1.6-2.66,3.427-3.243l4.082-1.35c.623-.208.951-.319.951-.9v-1.4a.8.8,0,0,0-.951-.9H41.123a.8.8,0,0,0-.951.9Z" transform="translate(-21.082 -4.275)" fill="#f2f2f2"/>
      <path id="Path_7" data-name="Path 7" d="M69.367,12.812V28.787a.12.12,0,0,1-.112.112H65.749a.112.112,0,0,1-.1-.056L59.846,18.659a.248.248,0,0,0-.463.12V28.8a.112.112,0,0,1-.112.112H56.292a.112.112,0,0,1-.112-.112V12.828a.112.112,0,0,1,.112-.112H59.8a.12.12,0,0,1,.1.056L65.7,22.956a.248.248,0,0,0,.455-.12V12.812a.112.112,0,0,1,.112-.112h2.987A.12.12,0,0,1,69.367,12.812Z" transform="translate(-25.013 -4.297)" fill="#f2f2f2"/>
      <path id="Path_8" data-name="Path 8" d="M86.468,12.7a3.147,3.147,0,0,1,3.379,3.195v9.825a3.147,3.147,0,0,1-3.379,3.195H77.682a.112.112,0,0,1-.112-.112V12.826a.112.112,0,0,1,.112-.112Zm-.855,13.147a.7.7,0,0,0,.8-.8V16.524a.7.7,0,0,0-.8-.759H81.228a.24.24,0,0,0-.248.24V25.59a.24.24,0,0,0,.248.24Z" transform="translate(-29.318 -4.295)" fill="#f2f2f2"/>
      <path id="Path_9" data-name="Path 9" d="M166.809,28.142l-5.136-15.016a.423.423,0,0,0-.4-.3h-3.307a.439.439,0,0,0-.407.3l-5.1,15.016a.423.423,0,0,0,.4.567h2.564a.439.439,0,0,0,.407-.3l.935-2.979c.056-.176,1.142-3.69,1.2-3.858l1.23-3.954a.423.423,0,0,1,.8,0L161.2,21.56c.056.2,1.11,3.682,1.166,3.866l.9,3.011a.439.439,0,0,0,.407.3h2.7a.431.431,0,0,0,.431-.6Z" transform="translate(-44.385 -4.323)" fill="#f2f2f2"/>
      <text id="_" data-name="[" transform="translate(0 23)" fill="#f2f2f2" font-size="30" font-family="Helvetica" letter-spacing="0.04em"><tspan x="0" y="0">[</tspan></text>
      <text id="_2" data-name="[" transform="matrix(-1, 0, 0, 1, 181.555, 23.376)" fill="#f2f2f2" font-size="30" font-family="Helvetica" letter-spacing="0.04em"><tspan x="0" y="0">[</tspan></text>
      <rect id="Rectangle_2" data-name="Rectangle 2" width="13.603" height="3.059" rx="0.19" transform="translate(63.229 21.534)" fill="#f2f2f2"/>
    </g>
  </g>
</svg>
