<svg xmlns="http://www.w3.org/2000/svg" width="17.568" height="20.222" viewBox="0 0 17.568 20.222">
  <path id="tiktok" d="M11.6.017C12.7,0,13.795.008,14.89,0a5.248,5.248,0,0,0,1.474,3.514,5.942,5.942,0,0,0,3.573,1.508v3.4A9.019,9.019,0,0,1,16.4,7.6a10.41,10.41,0,0,1-1.365-.784c-.008,2.46.008,4.921-.017,7.372a6.436,6.436,0,0,1-1.137,3.32,6.277,6.277,0,0,1-4.98,2.7,6.144,6.144,0,0,1-3.438-.868,6.354,6.354,0,0,1-3.075-4.811c-.017-.421-.025-.843-.008-1.255A6.343,6.343,0,0,1,9.733,7.651C9.75,8.9,9.7,10.145,9.7,11.392a2.891,2.891,0,0,0-3.69,1.786,3.342,3.342,0,0,0-.118,1.357A2.868,2.868,0,0,0,8.84,16.953,2.831,2.831,0,0,0,11.174,15.6a1.944,1.944,0,0,0,.345-.893c.084-1.508.051-3.008.059-4.516.008-3.4-.008-6.783.017-10.17Z" transform="translate(-2.369)" fill="#86a8db"/>
</svg>
