<svg xmlns="http://www.w3.org/2000/svg" width="24.68" height="20.567" viewBox="0 0 24.68 20.567">
  <path id="twitter" d="M24.68,5.406a6.633,6.633,0,0,1-.921,1.32,6.8,6.8,0,0,1-1.665,1.4q.028.22.041.413a14.975,14.975,0,0,1-1.059,5.737,15.106,15.106,0,0,1-6.012,7.47,15.807,15.807,0,0,1-9.41,1.719A10.8,10.8,0,0,1,0,21.282a10.536,10.536,0,0,0,7.539-2.174,5.194,5.194,0,0,1-4.787-3.549,3.219,3.219,0,0,0,1.073.055,9.983,9.983,0,0,0,1.211-.165A5.675,5.675,0,0,1,1.6,12.779a5.753,5.753,0,0,1-.578-2.531,4.834,4.834,0,0,0,2.284.688A5.9,5.9,0,0,1,1.059,7.29,6.751,6.751,0,0,1,1.678,4,17.292,17.292,0,0,0,7.553,8.4a12.169,12.169,0,0,0,4.608.963A6.159,6.159,0,0,1,12.78,5.46a5.323,5.323,0,0,1,3.178-2.311,4.69,4.69,0,0,1,4.705,1.458A8.375,8.375,0,0,0,23.937,3.4a4.968,4.968,0,0,1-2.256,2.916,14.307,14.307,0,0,0,3-.908Z" transform="translate(0 -2.999)" fill="#86a8db"/>
</svg>
